<?xml version="1.0" standalone="no"?><!DOCTYPE svg PUBLIC "-//W3C//DTD SVG 1.1//EN" "http://www.w3.org/Graphics/SVG/1.1/DTD/svg11.dtd"><svg t="1492285642964" class="icon" style="" viewBox="0 0 1024 1024" version="1.1" xmlns="http://www.w3.org/2000/svg" p-id="4333" xmlns:xlink="http://www.w3.org/1999/xlink" width="48" height="48"><defs><style type="text/css"></style></defs><path d="M512.01 0C794.768 0 1024 229.232 1024 512.01 1024 794.768 794.768 1024 512.01 1024 229.232 1024 0 794.768 0 512.01 0 229.232 229.232 0 512.01 0z" fill="#B1E9F1" p-id="4334"></path><path d="M368.58 181.858c41.26 0 74.684 33.426 74.684 74.684 0 41.22-33.426 74.666-74.684 74.666-41.22 0-74.666-33.446-74.666-74.666 0-41.26 33.444-74.684 74.666-74.684z" fill="#FFED58" p-id="4335"></path><path d="M564.854 75.682c6.486 0 12.58 1.544 17.992 4.278a32.34 32.34 0 0 1 22.7-9.28c15.296 0 28.132 10.608 31.57 24.85a25.78 25.78 0 0 1 16.586 15.492c0.918-0.098 1.836-0.136 2.794-0.136 14.144 0 25.612 11.468 25.612 25.612 0 14.144-11.468 25.612-25.612 25.612-4.416 0-8.556-1.114-12.17-3.086-3.106 10.646-12.952 18.422-24.596 18.422a25.42 25.42 0 0 1-18.188-7.6 25.466 25.466 0 0 1-18.208 7.6c-6.76 0-12.914-2.618-17.504-6.896a25.498 25.498 0 0 1-18.89 8.322 25.502 25.502 0 0 1-17.972-7.364 30.362 30.362 0 0 1-6.564 0.704c-16.86 0-30.514-13.656-30.514-30.496 0-16.86 13.656-30.514 30.514-30.514 0.918 0 1.836 0.04 2.716 0.118 2.166-20.03 19.124-35.638 39.734-35.638z" fill="#FFFFFF" p-id="4336"></path><path d="M646.454 277.192s15.316-3.282 28.132-0.84c12.854 2.462 26.256 13.128 40.732 13.948 14.496 0.82 11.486-4.65 11.486-4.65s-9.3 1.368-11.76-6.544c-2.462-7.932 7.658-14.222 23.228-25.142 15.59-10.94 18.578-21.86 15.59-28.718 0 0-2.754 4.376-15.59 11.214-12.854 6.838-22.134 19.418-32.234 28.424-10.12 9.026-10.666 9.552-20.238 7.658-9.554-1.914-30.046-4.924-39.346 4.65z" fill="" p-id="4337"></path><path d="M1006.868 380.3c-9.982 0.254-22.348 0.684-36.552 1.328l-6.916 15.336-6.35-10.804-1.348-2.306-5.04-8.596-4.318-7.286-2.832 12.834-0.996-0.762-7.306 12.152-0.274-0.684-10.12-25.436-0.098-0.234-0.076 0.158-0.294 6.134-2.5 11.976-22.036-10.706-0.118 0.626-3.34 1.504-3.164 12.19-22.056-12.19-1.446 5.51-0.508 0.234-2.168 0.898-0.528 0.214-22.896 8.928c-40.81 4.474-84.354 10.726-126.494 19.398l-4.474 15.198-21.196-23.56-4.474 15.198-7.424 1.7c-18.578 4.63-36.61 9.806-53.724 15.59l-3.438 12.698-22.016-14.436-3.322 12.288 2.442 14.242-27.018-10.296 2.442 14.262-12.854-0.996-13.91-9.494-0.176 16.37-5.86 3.068-0.976 0.508c-138.038 76.306-230.95 177.306-230.95 177.306l570.402 115.866h75.954C999.444 691.328 1024 604.53 1024 512.01c0-45.538-5.978-89.688-17.132-131.71z" fill="#9BCB64" p-id="4338"></path><path d="M38.916 315.93c7.58 1.562 15.53 3.282 23.696 5.138l3.556 0.82 9.67-6.7 10.588 21.04 3.692-2.56 9.65-13.108 7.228 19.516 8.01-14.262 12.522 30.202 8.01-14.262 17.016 5.86 11.78-8.088 4.922 28.15 3.204-2.188 5.764 1.23 9.924-9.046 10.314 24.79 9.924-9.026 7.014-0.43 7.58-1.054-12.64 25.006 13.87-1.914 10.588 7.6 2.208 1.368 1.524 0.958 0.684 0.41 1.27 0.8 0.586 0.372 1.054 1.25 0.704 0.918v0.996l11.8-2.032 0.214 0.176 1.876 1.582 1.504 1.25 1.192 1.036c10.51 10.666 19.458 22.408 26.354 35.38 7.384 13.85 15.356 26.06 23.854 36.766l24.81 13.01 2.754 1.388 4.512-1.894-6.036 32.078 15.042-6.35 2.13 1.152 0.976 0.528 0.938 0.528 0.938 0.508 1.816 0.996 27.662 14.222c152.378 58.92 391.65-76.794 631.764 57.064C976.392 839.368 765.778 1024 512.01 1024 229.232 1024 0 794.768 0 512.01c0-69.468 13.85-135.676 38.916-196.08z" fill="#ADD37F" p-id="4339"></path><path d="M131.964 458.678c43.74 0 79.51 35.77 79.51 79.49v92.344h-159v-92.344c-0.002-43.72 35.768-79.49 79.49-79.49z" fill="#747474" p-id="4340"></path><path d="M129.952 475.536h4.024c42.626 0 77.498 34.872 77.498 77.478v77.498h-159v-77.498c-0.002-42.606 34.87-77.478 77.478-77.478z" fill="#BBBBBB" p-id="4341"></path><path d="M115.182 505.094h3.262c34.5 0 62.71 28.21 62.71 62.71v62.71H52.472v-62.71c0-34.5 28.21-62.71 62.71-62.71z" fill="#B1E9F1" p-id="4342"></path><path d="M215.928 662.238h134.482v26.706h-134.482z" fill="#747474" p-id="4343"></path><path d="M322.982 987.976V688.944h-79.608v258.984a510.882 510.882 0 0 0 79.608 40.048z" fill="#747474" p-id="4344"></path><path d="M52.472 630.514h957.716a523.58 523.58 0 0 1-8.596 31.726H52.472v-31.726z" fill="#9F877E" p-id="4345"></path><path d="M52.472 646.376h953.672a488.8 488.8 0 0 1-4.552 15.862H52.472v-15.862z" fill="#8B6E62" p-id="4346"></path><path d="M501.93 662.238h134.482v26.706h-134.482z" fill="#747474" p-id="4347"></path><path d="M608.966 1014.798V688.944h-79.608v334.744a515.198 515.198 0 0 0 79.608-8.89zM789.436 662.238h134.464v26.706h-134.464zM896.472 850.094v-161.15h-79.608v234.428a514.85 514.85 0 0 0 79.608-73.278z" fill="#747474" p-id="4348"></path><path d="M240.698 543.364h782.324a512.512 512.512 0 0 1-14.75 95.022H148.002c-6.544 0-12.132-3.712-14.71-9.728-2.56-6.036-1.328-12.62 3.204-17.348l38.466-39.97c17.854-18.54 40.008-27.976 65.736-27.976z" fill="#FFFFFF" p-id="4349"></path><path d="M1021.362 564.268H182.482c16.43-13.85 35.984-20.904 58.216-20.904h782.324c-0.428 7.014-0.936 13.988-1.66 20.904z" fill="#64B3F5" p-id="4350"></path><path d="M133.194 616.292h880.178c-0.84 4.064-1.738 8.108-2.676 12.112H133.194c-1.64-4.026-1.602-8.324 0-12.112zM174.726 571.574h74.94l-15.218 22.094H153.472zM292.8 571.574h-36.512l-15.004 22.094h50.754z" fill="#747474" p-id="4351"></path><path d="M334.02 572.082h156.442c1.446 0 2.638 1.192 2.638 2.638v0.02c0 1.446-1.192 2.618-2.638 2.618H334.02a2.618 2.618 0 0 1-2.618-2.618v-0.02c0-1.446 1.172-2.638 2.618-2.638zM334.02 581.712h156.442a2.64 2.64 0 0 1 2.638 2.638c0 1.446-1.192 2.638-2.638 2.638H334.02a2.634 2.634 0 0 1-2.618-2.638c0-1.464 1.172-2.638 2.618-2.638zM334.02 590.7h156.442c1.446 0 2.638 1.192 2.638 2.638v0.02c0 1.426-1.192 2.618-2.638 2.618H334.02a2.63 2.63 0 0 1-2.618-2.618v-0.02c0-1.446 1.172-2.638 2.618-2.638z" fill="#BBBBBB" p-id="4352"></path><path d="M540.922 564.268h27.8v52.024h-27.8z" fill="#E5E5E5" p-id="4353"></path><path d="M598.592 576.282h41.142v21.822h-41.142v-21.822z m52.746 0h41.142v21.822h-41.142v-21.822z m52.726 0h41.142v21.822h-41.142v-21.822z m52.728 0h41.142v21.822h-41.142v-21.822z m52.746 0h41.142v21.822h-41.142v-21.822z m52.726 0h41.142v21.822h-41.142v-21.822z m52.728 0h41.162v21.822h-41.162v-21.822z m52.746 0h41.142v21.822h-41.142v-21.822z" fill="#B9DDF9" p-id="4354"></path><path d="M934.82 355.51c0.214 0.8-0.508 1.484-0.742 1.68 1.348-1.094 1.992 0.234 1.992 0.234 1.974 0.312-0.098 1.876-0.098 1.876-0.704 0.274-1.172-0.488-1.172-0.488-1.798 0.898-0.782 1.406-0.782 1.406 1.328-0.312 0.528 0.86 0.528 0.86l-0.82 0.118-0.976 0.528 0.04 0.352 0.742-0.098 0.078 0.586-0.88 0.39 0.274 0.664c1.016 1.446-2.402 2.148-2.402 2.148-0.528 4.356-4.59 2.774-5.548 2.344a7.29 7.29 0 0 1-2.324 0.704 7.86 7.86 0 0 1-5.646-1.368c-1.192 0.234-2.5-0.118-2.5-0.118-1.388 0.156-0.82-1.876-0.82-1.876-1.094 2.246-2.656 0.312-2.656 0.312-1.504-1.622 0.312-2.56 0.312-2.56-0.88-0.996 0.312-1.798 0.312-1.798-2.286-0.43-2.814-1.602-2.93-2.324a24.068 24.068 0 0 1-2.246-0.86 18.844 18.844 0 0 1-5.744 1.72 19.432 19.432 0 0 1-13.928-3.38c-2.97 0.586-6.192-0.254-6.192-0.254-3.438 0.352-2.07-4.67-2.07-4.67-1.836 3.848-4.258 2.754-5.588 1.7 0.234 1.172-2.578 1.758-2.578 1.758-0.528 4.356-4.59 2.794-5.548 2.364a8.376 8.376 0 0 1-2.344 0.684 7.854 7.854 0 0 1-5.626-1.368c-1.192 0.234-2.5-0.118-2.5-0.118-1.368 0.156-0.82-1.876-0.82-1.876-1.074 2.246-2.676 0.312-2.676 0.312-1.484-1.622 0.332-2.56 0.332-2.56-0.86-0.996 0.312-1.798 0.312-1.798-3.4-0.644-2.91-2.95-2.91-2.95-1.562-2.012-0.04-3.77-0.04-3.77a1.882 1.882 0 0 1-0.468-0.528 7.756 7.756 0 0 1-5.236-1.406c-1.212 0.234-2.52-0.118-2.52-0.118-1.388 0.156-0.84-1.894-0.84-1.894-1.074 2.286-2.676 0.312-2.676 0.312-1.524-1.622 0.312-2.578 0.312-2.578-0.86-0.976 0.332-1.798 0.332-1.798-3.438-0.644-2.93-2.97-2.93-2.97-1.582-2.052-0.04-3.81-0.04-3.81-1.368-1.094-0.118-2.188-0.118-2.188-0.43-1.368 1.484-1.308 1.484-1.308-1.914-3.672 1.484-4.082 1.484-4.082 0.626-1.758 2.148-0.684 2.148-0.684 0.782-1.954 3.438-0.488 3.438-0.488-0.782-1.66 1.72-1.68 1.72-1.68 0.488-0.274 0.918-0.312 1.308-0.196 0-0.234 0.02-0.372 0.02-0.372-1.562-2.032-0.02-3.77-0.02-3.77-1.368-1.114-0.118-2.228-0.118-2.228-0.176-0.586 0.058-0.918 0.41-1.094-1.524-3.516 0.918-6.29 0.918-6.29-2.852-2.324-0.214-4.63-0.214-4.63-0.938-2.832 3.086-2.754 3.086-2.754-4.024-7.658 3.106-8.518 3.106-8.518 1.29-3.692 4.494-1.466 4.494-1.466 1.622-4.082 7.228-0.976 7.228-0.976-1.66-3.516 3.594-3.556 3.594-3.556 3.516-1.954 5.998 2.228 5.998 2.228 2.09-2.736 3.83-3.692 5.196-3.75-1.172-3.81 2.696-4.278 2.696-4.278 0.86-2.462 2.988-0.976 2.988-0.976 1.094-2.716 4.844-0.644 4.844-0.644-1.114-2.364 2.402-2.384 2.402-2.384 2.364-1.308 4.004 1.484 4.004 1.484 4.18-5.45 6.232-0.294 6.232-0.294 7.11-3.478 8.244 3.086 8.244 3.086 1.466-1.836 3.4 0.058 5.274 2.716 1.23 1.778 0.43 3.38-0.254 4.258 1.25 0.704 1.992 1.954 1.992 1.954 5.528-7.208 8.206-0.39 8.206-0.39 9.378-4.61 10.9 4.082 10.9 4.082 1.894-2.442 4.454 0.058 6.936 3.576 2.462 3.516-1.192 6.524-1.192 6.524 2.598 2.246-1.328 3.77-1.328 3.77 2.09 2.012 0.02 4.004-0.508 4.454 2.482-2.012 3.692 0.45 3.692 0.45 3.654 0.586-0.196 3.496-0.196 3.496-1.328 0.508-2.188-0.88-2.188-0.88-1.798 0.88-2.09 1.562-1.974 2.012 4.572-1.074 5.392 3.556 5.392 3.556 1.29-1.68 3.048 0.04 4.748 2.442 1.68 2.422-0.82 4.474-0.82 4.474 1.778 1.544-0.918 2.598-0.918 2.598 1.446 1.368 0.02 2.716-0.352 3.028 1.72-1.388 2.54 0.294 2.54 0.294 2.5 0.41-0.118 2.422-0.118 2.422-0.938 0.332-1.504-0.626-1.504-0.626-0.664 0.332-1.016 0.626-1.212 0.86 1.7 0.684 2.052 2.734 2.052 2.734 1.016-1.328 2.402 0.02 3.75 1.934 1.328 1.894-0.644 3.516-0.644 3.516 1.388 1.212-0.722 2.052-0.722 2.052 1.134 1.074 0.02 2.148-0.274 2.384 1.348-1.094 1.992 0.234 1.992 0.234 1.974 0.332-0.098 1.894-0.098 1.894-0.722 0.294-1.172-0.468-1.172-0.468-1.816 0.898-0.82 1.406-0.82 1.406 1.368-0.312 0.566 0.86 0.566 0.86l-0.84 0.118-0.996 0.546 0.058 0.332 0.762-0.098 0.078 0.586-0.898 0.41 0.274 0.664c1.036 1.446-2.422 2.148-2.422 2.148-0.528 4.376-4.63 2.814-5.568 2.364a7.564 7.564 0 0 1-2.344 0.704 7.986 7.986 0 0 1-5.666-1.368l-0.506 0.07z" fill="#9BCB64" p-id="4355"></path><path d="M894.87 424.294s-0.372-2.09 0.214-9.202l-2.032-22.994s-0.352-8.458 0.742-10.9c0 0 16.566-16.078 19.926-16.956 0 0 2.402-21.06 5.43-21.49l-3.008-1.758s-2.696 19.868-4.67 22.916c0 0-7.638-28.756-6.446-31.784l-1.114 0.86s3.594 28.698 2.93 30.69l-4.884 5.04s-1.68 5.08-2.696 2.774c0 0-9.338-5.704-4.728-35.712l-3.75-2.442-3.106 19.77s2.148-0.02 1.192 5.002c0 0 3.81 11.936 3.224 13.128 0 0-0.918 5.666-3.4 4.004l-5.236-12.366s-4.396-17.64-1.426-20.356l-1.134-1.406s-1.974 8.732-0.39 15.14c0 0-8.01-8.888-10.49-8.87l0.058 1.602s1.524-3.146 9.806 8.928c0 0 5.684 16.02 5.88 19.164 0 0-0.664 9.572-0.254 11.39 0 0 4.982 25.572-3.242 33.27l12.604 2.558z" fill="#4E342E" p-id="4356"></path><path d="M201.432 317.064c0.214 0.8-0.508 1.484-0.722 1.68 1.348-1.094 1.974 0.234 1.974 0.234 1.992 0.312-0.098 1.876-0.098 1.876-0.704 0.274-1.172-0.488-1.172-0.488-1.798 0.898-0.782 1.406-0.782 1.406 1.328-0.312 0.528 0.86 0.528 0.86l-0.82 0.118-0.976 0.528 0.04 0.352 0.742-0.098 0.078 0.586-0.88 0.39 0.274 0.664c1.016 1.446-2.402 2.148-2.402 2.148-0.528 4.336-4.59 2.774-5.548 2.344a7.29 7.29 0 0 1-2.324 0.704 7.86 7.86 0 0 1-5.646-1.368c-1.192 0.234-2.5-0.118-2.5-0.118-1.388 0.156-0.82-1.876-0.82-1.876-1.094 2.246-2.656 0.312-2.656 0.312-1.504-1.622 0.312-2.56 0.312-2.56-0.88-0.996 0.312-1.798 0.312-1.798-2.286-0.43-2.814-1.602-2.91-2.344a18.164 18.164 0 0 1-2.246-0.84 18.966 18.966 0 0 1-5.764 1.72 19.456 19.456 0 0 1-13.928-3.38c-2.97 0.586-6.192-0.254-6.192-0.254-3.438 0.352-2.07-4.67-2.07-4.67-1.836 3.848-4.258 2.754-5.588 1.7 0.234 1.172-2.578 1.758-2.578 1.758-0.528 4.356-4.59 2.774-5.548 2.364a8.202 8.202 0 0 1-2.344 0.684c-2.052 0.294-4.024-0.274-5.626-1.368-1.192 0.234-2.482-0.118-2.482-0.118-1.388 0.156-0.84-1.876-0.84-1.876-1.074 2.246-2.676 0.312-2.676 0.312-1.484-1.622 0.332-2.56 0.332-2.56-0.86-0.996 0.312-1.798 0.312-1.798-3.4-0.644-2.91-2.95-2.91-2.95-1.562-2.012-0.04-3.77-0.04-3.77a1.882 1.882 0 0 1-0.468-0.528 7.756 7.756 0 0 1-5.236-1.406c-1.212 0.234-2.52-0.118-2.52-0.118-1.388 0.156-0.84-1.894-0.84-1.894-1.074 2.286-2.676 0.312-2.676 0.312-1.504-1.622 0.312-2.578 0.312-2.578-0.86-0.976 0.332-1.798 0.332-1.798-3.418-0.644-2.93-2.97-2.93-2.97-1.582-2.052-0.04-3.81-0.04-3.81-1.368-1.094-0.118-2.188-0.118-2.188-0.43-1.368 1.484-1.308 1.484-1.308-1.914-3.672 1.484-4.082 1.484-4.082 0.626-1.758 2.148-0.684 2.148-0.684 0.782-1.954 3.438-0.488 3.438-0.488-0.782-1.66 1.72-1.68 1.72-1.68 0.488-0.274 0.918-0.312 1.308-0.196 0-0.234 0.02-0.372 0.02-0.372-1.562-2.032-0.02-3.77-0.02-3.77-1.368-1.114-0.098-2.228-0.098-2.228-0.196-0.586 0.04-0.918 0.39-1.094-1.504-3.516 0.918-6.29 0.918-6.29-2.852-2.324-0.214-4.63-0.214-4.63-0.938-2.832 3.086-2.754 3.086-2.754-4.024-7.658 3.106-8.518 3.106-8.518 1.308-3.692 4.494-1.466 4.494-1.466 1.622-4.082 7.228-0.976 7.228-0.976-1.66-3.516 3.594-3.556 3.594-3.556 3.516-1.954 5.978 2.228 5.978 2.228 2.11-2.734 3.848-3.692 5.216-3.75-1.152-3.81 2.696-4.278 2.696-4.278 0.86-2.462 2.988-0.976 2.988-0.976 1.094-2.716 4.844-0.644 4.844-0.644-1.114-2.364 2.402-2.384 2.402-2.384 2.364-1.308 4.004 1.484 4.004 1.484 4.18-5.45 6.232-0.294 6.232-0.294 7.11-3.478 8.264 3.086 8.264 3.086 1.446-1.836 3.38 0.058 5.256 2.716 1.23 1.778 0.43 3.38-0.234 4.258 1.23 0.704 1.974 1.954 1.974 1.954 5.528-7.208 8.204-0.39 8.204-0.39 9.378-4.61 10.9 4.082 10.9 4.082 1.894-2.442 4.454 0.058 6.936 3.576 2.462 3.516-1.192 6.524-1.192 6.524 2.598 2.246-1.328 3.77-1.328 3.77 2.09 2.012 0.02 4.004-0.508 4.454 2.482-2.012 3.692 0.45 3.692 0.45 3.654 0.586-0.196 3.496-0.196 3.496-1.328 0.508-2.188-0.88-2.188-0.88-1.798 0.88-2.09 1.562-1.974 2.012 4.572-1.074 5.392 3.556 5.392 3.556 1.29-1.68 3.048 0.04 4.748 2.462 1.7 2.402-0.82 4.454-0.82 4.454 1.778 1.544-0.918 2.578-0.918 2.578 1.446 1.388 0.02 2.734-0.352 3.048 1.72-1.388 2.54 0.294 2.54 0.294 2.5 0.41-0.118 2.422-0.118 2.422-0.918 0.332-1.504-0.626-1.504-0.626-0.664 0.332-1.016 0.626-1.212 0.86 1.7 0.684 2.052 2.734 2.052 2.734 1.016-1.328 2.402 0.02 3.75 1.934 1.328 1.894-0.644 3.516-0.644 3.516 1.388 1.212-0.722 2.052-0.722 2.052 1.134 1.074 0.02 2.148-0.274 2.384 1.348-1.094 1.992 0.234 1.992 0.234 1.974 0.332-0.098 1.894-0.098 1.894-0.722 0.294-1.172-0.468-1.172-0.468-1.816 0.898-0.82 1.406-0.82 1.406 1.388-0.312 0.566 0.86 0.566 0.86l-0.84 0.118-0.996 0.546 0.058 0.332 0.762-0.098 0.078 0.586-0.898 0.41 0.274 0.664c1.036 1.446-2.422 2.148-2.422 2.148-0.528 4.376-4.63 2.814-5.568 2.364a7.96 7.96 0 0 1-8.01-0.664l-0.508 0.07z" fill="#9BCB64" p-id="4357"></path><path d="M161.482 385.848s-0.372-2.09 0.214-9.202l-2.032-22.994s-0.352-8.458 0.742-10.9c0 0 16.566-16.078 19.926-16.956 0 0 2.402-21.06 5.43-21.49l-3.008-1.778s-2.696 19.888-4.65 22.934c0 0-7.658-28.756-6.466-31.784l-1.114 0.86s3.594 28.698 2.93 30.69l-4.904 5.04s-1.66 5.08-2.676 2.774c0 0-9.338-5.704-4.708-35.712l-3.77-2.442-3.106 19.75s2.148 0 1.192 5.02c0 0 3.81 11.936 3.224 13.108 0 0-0.918 5.684-3.4 4.024l-5.236-12.366s-4.396-17.64-1.426-20.356l-1.134-1.426s-1.974 8.752-0.39 15.16c0 0-8.01-8.888-10.49-8.87l0.058 1.602s1.524-3.164 9.806 8.928c0 0 5.684 16.02 5.88 19.164 0 0-0.664 9.572-0.254 11.39 0 0 4.982 25.572-3.242 33.27l12.604 2.562z" fill="#4E342E" p-id="4358"></path><path d="M840.326 370.67c0.118 0.488-0.312 0.898-0.45 1.016 0.82-0.664 1.192 0.136 1.192 0.136 1.192 0.196-0.058 1.134-0.058 1.134-0.41 0.156-0.704-0.294-0.704-0.294-1.074 0.528-0.468 0.84-0.468 0.84 0.8-0.196 0.312 0.508 0.312 0.508l-0.488 0.078-0.586 0.312 0.04 0.214 0.43-0.058 0.058 0.352-0.528 0.234 0.156 0.39c0.606 0.88-1.446 1.29-1.446 1.29-0.312 2.618-2.754 1.68-3.322 1.406a4.696 4.696 0 0 1-4.786-0.39 4.064 4.064 0 0 1-1.504-0.058c-0.82 0.078-0.488-1.134-0.488-1.134-0.664 1.348-1.602 0.176-1.602 0.176-0.898-0.958 0.176-1.544 0.176-1.544-0.528-0.586 0.196-1.054 0.196-1.054-1.368-0.274-1.68-0.976-1.758-1.406a20.88 20.88 0 0 1-1.328-0.508 12.15 12.15 0 0 1-3.478 1.036 11.644 11.644 0 0 1-8.342-2.052c-1.798 0.352-3.732-0.136-3.732-0.136-2.052 0.196-1.23-2.814-1.23-2.814-1.114 2.306-2.56 1.66-3.36 1.016 0.156 0.722-1.544 1.074-1.544 1.074-0.332 2.598-2.774 1.66-3.34 1.406a4.66 4.66 0 0 1-1.406 0.41 4.668 4.668 0 0 1-3.36-0.82 4.064 4.064 0 0 1-1.504-0.058c-0.84 0.078-0.508-1.134-0.508-1.134-0.644 1.348-1.602 0.176-1.602 0.176-0.898-0.958 0.214-1.524 0.214-1.524-0.528-0.606 0.176-1.094 0.176-1.094-2.052-0.372-1.758-1.758-1.758-1.758-0.938-1.212-0.02-2.266-0.02-2.266a1.32 1.32 0 0 1-0.274-0.312 4.736 4.736 0 0 1-3.146-0.84 3.854 3.854 0 0 1-1.504-0.078c-0.84 0.098-0.508-1.134-0.508-1.134-0.664 1.368-1.602 0.196-1.602 0.196-0.918-0.976 0.176-1.544 0.176-1.544-0.528-0.606 0.196-1.094 0.196-1.094-2.052-0.39-1.758-1.778-1.758-1.778-0.938-1.23-0.02-2.286-0.02-2.286-0.82-0.664-0.078-1.328-0.078-1.328-0.254-0.8 0.898-0.782 0.898-0.782-1.152-2.188 0.898-2.442 0.898-2.442 0.372-1.054 1.29-0.41 1.29-0.41 0.45-1.172 2.052-0.294 2.052-0.294-0.468-1.016 1.036-1.016 1.036-1.016a1.06 1.06 0 0 1 0.782-0.118c0-0.136 0.02-0.214 0.02-0.214-0.938-1.23-0.02-2.266-0.02-2.266-0.8-0.684-0.058-1.348-0.058-1.348-0.118-0.332 0.04-0.546 0.234-0.644-0.898-2.11 0.566-3.77 0.566-3.77-1.72-1.406-0.136-2.794-0.136-2.794-0.566-1.7 1.856-1.64 1.856-1.64-2.422-4.61 1.856-5.118 1.856-5.118 0.782-2.228 2.696-0.88 2.696-0.88 0.976-2.442 4.336-0.586 4.336-0.586-0.996-2.11 2.168-2.13 2.168-2.13 2.11-1.192 3.594 1.328 3.594 1.328 1.25-1.64 2.306-2.208 3.126-2.246-0.704-2.286 1.622-2.578 1.622-2.578 0.508-1.484 1.798-0.586 1.798-0.586 0.644-1.622 2.892-0.39 2.892-0.39-0.664-1.406 1.446-1.426 1.446-1.426 1.426-0.782 2.422 0.898 2.422 0.898 2.5-3.282 3.732-0.176 3.732-0.176 4.258-2.09 4.962 1.856 4.962 1.856 0.86-1.114 2.032 0.02 3.146 1.622 0.742 1.074 0.274 2.032-0.136 2.56 0.742 0.41 1.172 1.172 1.172 1.172 3.34-4.336 4.942-0.234 4.942-0.234 5.626-2.774 6.544 2.462 6.544 2.462 1.134-1.484 2.676 0.02 4.162 2.13 1.484 2.13-0.722 3.926-0.722 3.926 1.562 1.348-0.8 2.266-0.8 2.266 1.27 1.192 0.02 2.402-0.294 2.676 1.484-1.212 2.208 0.254 2.208 0.254 2.208 0.352-0.118 2.11-0.118 2.11-0.782 0.294-1.308-0.528-1.308-0.528-1.074 0.528-1.25 0.938-1.192 1.212 2.754-0.644 3.242 2.13 3.242 2.13 0.782-0.996 1.836 0.02 2.852 1.466 1.016 1.446-0.488 2.676-0.488 2.676 1.074 0.938-0.546 1.562-0.546 1.562 0.86 0.82 0 1.64-0.214 1.816 1.036-0.82 1.524 0.196 1.524 0.196 1.504 0.234-0.078 1.446-0.078 1.446-0.546 0.196-0.898-0.372-0.898-0.372a2.3 2.3 0 0 0-0.722 0.508c1.016 0.41 1.23 1.64 1.23 1.64 0.606-0.8 1.446 0.02 2.246 1.152s-0.39 2.11-0.39 2.11c0.84 0.742-0.43 1.23-0.43 1.23 0.684 0.644 0 1.308-0.176 1.446 0.82-0.664 1.212 0.136 1.212 0.136 1.172 0.196-0.058 1.134-0.058 1.134-0.43 0.176-0.704-0.274-0.704-0.274-1.094 0.528-0.488 0.84-0.488 0.84 0.82-0.176 0.332 0.508 0.332 0.508l-0.508 0.078-0.586 0.332 0.04 0.196 0.45-0.058 0.04 0.352-0.528 0.254 0.156 0.39c0.626 0.88-1.446 1.308-1.446 1.308-0.332 2.598-2.794 1.66-3.34 1.406a4.964 4.964 0 0 1-1.426 0.41 4.772 4.772 0 0 1-3.4-0.82l-0.302 0.042z" fill="#9BCB64" p-id="4359"></path><path d="M816.336 411.968s-0.214-1.25 0.136-5.528l-1.23-13.792s-0.214-5.08 0.45-6.544c0 0 9.944-9.65 11.956-10.198 0 0 1.446-12.64 3.262-12.894l-1.798-1.054s-1.622 11.936-2.794 13.754c0 0-4.59-17.25-3.888-19.066l-0.664 0.508s2.168 17.23 1.758 18.422l-2.93 3.028s-1.016 3.048-1.622 1.66c0 0-5.606-3.418-2.832-21.43l-2.246-1.466-1.876 11.858s1.29 0 0.722 3.008c0 0 2.286 7.17 1.934 7.872 0 0-0.546 3.418-2.052 2.422l-3.126-7.424s-2.656-10.588-0.86-12.23l-0.684-0.86s-1.192 5.256-0.234 9.104c0 0-4.806-5.334-6.31-5.334l0.04 0.976s0.918-1.894 5.88 5.352c0 0 3.438 9.632 3.536 11.506 0 0-0.39 5.744-0.136 6.838 0 0 2.97 15.356-1.954 19.966l7.562 1.546z" fill="#4E342E" p-id="4360"></path><path d="M254.002 751.732l14.926 1.426 9.728-6.506 5.646 11.526 11.272-9.592 5.236 29.148 2.97-2.54 9.67-8.674 6.036 16.782 10.452-4.552 0.626 2.286 14.144-3.77-7.952 28.19 0.84-0.234 2.676 1.66 11.312-2.97 2.988 23.228 11.33-2.988 2.52 2.988c0.214 0.39 0.43 0.762 0.644 1.152l0.274 0.644 12.718 2.892-6.72 11.566 16.37 1.152-22.036 24.322 2.988 0.214 12.698-1.66-2.168 7.618 13.714 2.97-17.68 21.84 0.294 0.058 11.994 1.094-5.158 13.46 13.656 3.556-11.428 12.932 0.528 4.494 11.136 6.682-1.25 1.114 9.632 10.822-28.542 5.002 5.04 5.666 11.116 7.716-2.734 1.894 10.568 12.072-18.208 0.762-2.716 0.118-8.204 0.352-1.446 0.058-1.484 0.058 0.372 0.41 13.402 4.416-12.444 12.406c-93.79-26.314-176.68-78.67-240.386-148.784l9.202-1.466-0.8-0.938-0.136-0.156-10.374-6.818 11.662-8.362-8.888-10.218 6.29-1.934-8.088-13.928 13.85 2.266 15.882 2.598 2.052 0.332-0.488-0.82 1.66-6.232 0.312-0.644-5.646-11.506 13.89-2.5-8.166-14.358 14.34 2.266-3.438-14.086 22.016 8.634-2.462-12.874 14.652 3.008 2.11-11.35 21.724 7.776 2.11-11.35 3.458-0.352 14.316-1.464z" fill="#7CB142" p-id="4361"></path></svg>